<svg width="121" height="114" viewBox="0 0 121 114" fill="none" xmlns="http://www.w3.org/2000/svg">
<ellipse cx="60.5" cy="57" rx="60.5" ry="57" fill="#AF9EDF"/>
<path fill-rule="evenodd" clip-rule="evenodd" d="M51.4375 35.2823L60.5 38.3345L69.5625 35.2823C75.3801 33.323 81.8699 33.323 87.6875 35.2823L94.4713 37.567C95.8476 38.0305 96.75 39.1528 96.75 40.4009V76.5563C96.75 78.242 95.127 79.6084 93.125 79.6084C92.6638 79.6084 92.2069 79.5344 91.7787 79.3901L87.6875 78.0123C81.8699 76.053 75.3801 76.053 69.5625 78.0123L60.5 81.0644L51.4375 78.0123C45.6199 76.053 39.1301 76.053 33.3125 78.0123L29.2213 79.3901C27.3625 80.0162 25.2528 79.2549 24.5093 77.6898C24.338 77.3293 24.25 76.9446 24.25 76.5563V40.4009C24.25 39.1528 25.1524 38.0305 26.5287 37.567L33.3125 35.2823C39.1301 33.323 45.6199 33.323 51.4375 35.2823ZM36.0823 40.7408L31.5 42.284V72.2464C38.8421 70.0017 46.9335 70.1042 54.2073 72.5539L56.875 73.451V43.5053L48.6677 40.7408C44.6238 39.3788 40.1261 39.3788 36.0823 40.7408ZM72.3323 40.7408L64.125 43.5024V73.451L66.7927 72.5539C74.0664 70.1042 82.1578 70.0017 89.5 72.2464V42.284L84.9177 40.7408C80.8738 39.3788 76.3761 39.3788 72.3323 40.7408Z" fill="black"/>
</svg>
