<svg width="61" height="60" viewBox="0 0 61 60" fill="none" xmlns="http://www.w3.org/2000/svg">
<path d="M35.8272 44.6803C35.8272 44.6803 14.7664 41.6375 10.5874 30.1556C9.84909 28.1262 9.86705 25.8925 10.6382 23.8344C11.4093 21.7763 12.8861 20.0208 14.8173 18.8664C16.7485 17.7121 19.0151 17.23 21.2315 17.5023C23.448 17.7745 25.4776 18.7843 26.9753 20.3598L26.9753 20.3599C27.1098 18.1902 28.0155 16.1121 29.5385 14.4788C31.0614 12.8455 33.1075 11.7579 35.3289 11.4008C37.5504 11.0438 39.81 11.4393 41.7237 12.5202C43.6373 13.6011 45.0868 15.3007 45.8258 17.3299C50.0049 28.8118 35.8272 44.6803 35.8272 44.6803Z" stroke="#1B1F3B" stroke-width="2" stroke-linecap="round" stroke-linejoin="round"/>
</svg>
