<svg width="19" height="18" viewBox="0 0 19 18" fill="none" xmlns="http://www.w3.org/2000/svg">
<path opacity="0.8" fill-rule="evenodd" clip-rule="evenodd" d="M16.7415 0H2.25846C1.01107 0 0 0.955405 0 2.13469V15.8653C0 17.0441 1.01107 18 2.25846 18H16.7415C17.9889 18 19 17.0441 19 15.8653V2.13469C19 0.955405 17.9889 0 16.7415 0ZM13.6562 2.81255C13.6562 2.50226 13.9221 2.2504 14.2496 2.2504H16.0308C16.3588 2.2504 16.6247 2.50226 16.6247 2.81255V4.50046C16.6247 4.81075 16.3588 5.06261 16.0308 5.06261H14.2496C13.9221 5.06261 13.6562 4.81075 13.6562 4.50046V2.81255ZM9.52222 5.56747C11.5402 5.56747 13.1763 7.11399 13.1763 9.02087C13.1763 10.9282 11.5402 12.4743 9.52222 12.4743C7.50474 12.4743 5.86868 10.9282 5.86868 9.02087C5.86868 7.11399 7.50474 5.56747 9.52222 5.56747ZM17.2189 15.7501C17.2189 16.0604 16.9531 16.3127 16.625 16.3127H2.37515C2.0471 16.3127 1.78125 16.0604 1.78125 15.7501V7.3125H4.15631C3.84693 7.73423 3.74225 8.52124 3.74225 9.02103C3.74225 12.0331 6.33549 14.4839 9.52211 14.4839C12.7092 14.4839 15.3025 12.0331 15.3025 9.02103C15.3025 8.52124 15.2273 7.74651 14.8438 7.3125H17.2189V15.7501Z" fill="url(#paint0_linear_5_82)"/>
<defs>
<linearGradient id="paint0_linear_5_82" x1="17.3478" y1="0.409091" x2="5.93138" y2="16.8759" gradientUnits="userSpaceOnUse">
<stop stop-color="#8A3AEF"/>
<stop offset="0.572952" stop-color="#EA55DB"/>
<stop offset="1" stop-color="#EAD255"/>
</linearGradient>
</defs>
</svg>
