<svg width="127" height="14" viewBox="0 0 127 14" fill="none" xmlns="http://www.w3.org/2000/svg">
<path d="M4.46387 5.59277H7.28027V6.53613H4.46387V9.44824H3.51367V6.53613H0.710938V5.59277H3.51367V2.66699H4.46387V5.59277ZM14.8887 3.35742C14.8887 3.99544 14.7087 4.51725 14.3486 4.92285C13.9932 5.32845 13.4873 5.59961 12.8311 5.73633V5.79102C13.6331 5.89128 14.2279 6.14648 14.6152 6.55664C15.0026 6.9668 15.1963 7.50456 15.1963 8.16992C15.1963 9.1224 14.8659 9.85612 14.2051 10.3711C13.5443 10.8815 12.6055 11.1367 11.3887 11.1367C10.86 11.1367 10.3747 11.0957 9.93262 11.0137C9.49512 10.9362 9.06901 10.7972 8.6543 10.5967V9.5166C9.08724 9.73079 9.54753 9.89486 10.0352 10.0088C10.5273 10.1182 10.9922 10.1729 11.4297 10.1729C13.1569 10.1729 14.0205 9.49609 14.0205 8.14258C14.0205 6.93034 13.068 6.32422 11.1631 6.32422H10.1787V5.34668H11.1768C11.9561 5.34668 12.5736 5.17578 13.0293 4.83398C13.485 4.48763 13.7129 4.00911 13.7129 3.39844C13.7129 2.91081 13.5443 2.52799 13.207 2.25C12.8743 1.97201 12.4209 1.83301 11.8467 1.83301C11.4092 1.83301 10.9967 1.89225 10.6094 2.01074C10.222 2.12923 9.77995 2.34798 9.2832 2.66699L8.70898 1.90137C9.11914 1.5778 9.59082 1.32487 10.124 1.14258C10.6618 0.955729 11.2269 0.862305 11.8193 0.862305C12.79 0.862305 13.5443 1.08561 14.082 1.53223C14.6198 1.97428 14.8887 2.58268 14.8887 3.35742ZM20.0156 0.862305C20.9271 0.862305 21.6494 1.07422 22.1826 1.49805C22.7158 1.92188 22.9824 2.50749 22.9824 3.25488C22.9824 3.74707 22.8298 4.19596 22.5244 4.60156C22.2191 5.00716 21.7314 5.3763 21.0615 5.70898C21.8727 6.09635 22.4492 6.50423 22.791 6.93262C23.1328 7.35645 23.3037 7.84863 23.3037 8.40918C23.3037 9.23861 23.0143 9.90169 22.4355 10.3984C21.8568 10.8906 21.0638 11.1367 20.0566 11.1367C18.9902 11.1367 18.1699 10.9043 17.5957 10.4395C17.0215 9.97005 16.7344 9.30697 16.7344 8.4502C16.7344 7.30632 17.4316 6.41536 18.8262 5.77734C18.1973 5.42188 17.7461 5.03906 17.4727 4.62891C17.1992 4.21419 17.0625 3.75163 17.0625 3.24121C17.0625 2.5166 17.3291 1.9401 17.8623 1.51172C18.4001 1.07878 19.1178 0.862305 20.0156 0.862305ZM17.8555 8.47754C17.8555 9.02441 18.0446 9.45052 18.4229 9.75586C18.8057 10.0612 19.3411 10.2139 20.0293 10.2139C20.7083 10.2139 21.237 10.0544 21.6152 9.73535C21.9935 9.41634 22.1826 8.97884 22.1826 8.42285C22.1826 7.98079 22.0049 7.58887 21.6494 7.24707C21.2939 6.90072 20.6742 6.56576 19.79 6.24219C19.111 6.53385 18.6188 6.85742 18.3135 7.21289C18.0081 7.5638 17.8555 7.98535 17.8555 8.47754ZM20.002 1.78516C19.4323 1.78516 18.9857 1.92188 18.6621 2.19531C18.3385 2.46875 18.1768 2.83333 18.1768 3.28906C18.1768 3.70833 18.3112 4.06836 18.5801 4.36914C18.849 4.66992 19.3457 4.9707 20.0703 5.27148C20.722 4.99805 21.1823 4.7041 21.4512 4.38965C21.7246 4.0752 21.8613 3.70833 21.8613 3.28906C21.8613 2.82878 21.695 2.46419 21.3623 2.19531C21.0342 1.92188 20.5807 1.78516 20.002 1.78516ZM31.3428 5.98926C31.3428 7.71647 31.0693 9.00618 30.5225 9.8584C29.9801 10.7106 29.1484 11.1367 28.0273 11.1367C26.9518 11.1367 26.1338 10.7015 25.5732 9.83105C25.0127 8.95605 24.7324 7.67546 24.7324 5.98926C24.7324 4.24837 25.0036 2.95638 25.5459 2.11328C26.0882 1.27018 26.9154 0.848633 28.0273 0.848633C29.112 0.848633 29.9346 1.28841 30.4951 2.16797C31.0602 3.04753 31.3428 4.32129 31.3428 5.98926ZM25.8809 5.98926C25.8809 7.44303 26.0518 8.5026 26.3936 9.16797C26.7354 9.82878 27.2799 10.1592 28.0273 10.1592C28.7839 10.1592 29.3307 9.82422 29.668 9.1543C30.0098 8.47982 30.1807 7.4248 30.1807 5.98926C30.1807 4.55371 30.0098 3.50326 29.668 2.83789C29.3307 2.16797 28.7839 1.83301 28.0273 1.83301C27.2799 1.83301 26.7354 2.16341 26.3936 2.82422C26.0518 3.48047 25.8809 4.53548 25.8809 5.98926ZM36.2441 7.16504C36.2441 5.95736 36.4196 4.82715 36.7705 3.77441C37.126 2.72168 37.6364 1.79883 38.3018 1.00586H39.4092C38.7529 1.88542 38.2585 2.85156 37.9258 3.9043C37.5977 4.95703 37.4336 6.03939 37.4336 7.15137C37.4336 8.24512 37.6022 9.3138 37.9395 10.3574C38.2767 11.401 38.762 12.3535 39.3955 13.2148H38.3018C37.6318 12.4401 37.1214 11.5355 36.7705 10.501C36.4196 9.46647 36.2441 8.35449 36.2441 7.16504ZM40.626 6.72754C40.626 4.76335 41.0065 3.2959 41.7676 2.3252C42.5332 1.34993 43.6634 0.862305 45.1582 0.862305C45.6732 0.862305 46.0788 0.905599 46.375 0.992188V1.96973C46.0241 1.85579 45.623 1.79883 45.1719 1.79883C44.1009 1.79883 43.2829 2.13379 42.7178 2.80371C42.1527 3.46908 41.8428 4.51725 41.7881 5.94824H41.8701C42.3714 5.16439 43.1644 4.77246 44.249 4.77246C45.1468 4.77246 45.8532 5.04362 46.3682 5.58594C46.8877 6.12826 47.1475 6.86426 47.1475 7.79395C47.1475 8.83301 46.8626 9.65104 46.293 10.248C45.7279 10.8405 44.9622 11.1367 43.9961 11.1367C42.9616 11.1367 42.1413 10.7493 41.5352 9.97461C40.929 9.19531 40.626 8.11296 40.626 6.72754ZM43.9824 10.1729C44.6296 10.1729 45.1309 9.97005 45.4863 9.56445C45.8464 9.1543 46.0264 8.56413 46.0264 7.79395C46.0264 7.13314 45.86 6.61361 45.5273 6.23535C45.1947 5.8571 44.6979 5.66797 44.0371 5.66797C43.627 5.66797 43.251 5.75228 42.9092 5.9209C42.5674 6.08952 42.2939 6.32194 42.0889 6.61816C41.8883 6.91439 41.7881 7.22201 41.7881 7.54102C41.7881 8.01042 41.8792 8.44792 42.0615 8.85352C42.2438 9.25911 42.5013 9.5804 42.834 9.81738C43.1712 10.0544 43.554 10.1729 43.9824 10.1729ZM54.7148 3.35742C54.7148 3.99544 54.5348 4.51725 54.1748 4.92285C53.8193 5.32845 53.3135 5.59961 52.6572 5.73633V5.79102C53.4593 5.89128 54.054 6.14648 54.4414 6.55664C54.8288 6.9668 55.0225 7.50456 55.0225 8.16992C55.0225 9.1224 54.6921 9.85612 54.0312 10.3711C53.3704 10.8815 52.4316 11.1367 51.2148 11.1367C50.6862 11.1367 50.2008 11.0957 49.7588 11.0137C49.3213 10.9362 48.8952 10.7972 48.4805 10.5967V9.5166C48.9134 9.73079 49.3737 9.89486 49.8613 10.0088C50.3535 10.1182 50.8184 10.1729 51.2559 10.1729C52.9831 10.1729 53.8467 9.49609 53.8467 8.14258C53.8467 6.93034 52.8942 6.32422 50.9893 6.32422H50.0049V5.34668H51.0029C51.7822 5.34668 52.3997 5.17578 52.8555 4.83398C53.3112 4.48763 53.5391 4.00911 53.5391 3.39844C53.5391 2.91081 53.3704 2.52799 53.0332 2.25C52.7005 1.97201 52.2471 1.83301 51.6729 1.83301C51.2354 1.83301 50.8229 1.89225 50.4355 2.01074C50.0482 2.12923 49.6061 2.34798 49.1094 2.66699L48.5352 1.90137C48.9453 1.5778 49.417 1.32487 49.9502 1.14258C50.488 0.955729 51.0531 0.862305 51.6455 0.862305C52.6162 0.862305 53.3704 1.08561 53.9082 1.53223C54.446 1.97428 54.7148 2.58268 54.7148 3.35742ZM59.4316 7.16504C59.4316 8.36361 59.2539 9.48014 58.8984 10.5146C58.5475 11.5492 58.0394 12.4492 57.374 13.2148H56.2803C56.9137 12.3581 57.3991 11.4079 57.7363 10.3643C58.0736 9.31608 58.2422 8.24512 58.2422 7.15137C58.2422 6.03939 58.0758 4.95703 57.7432 3.9043C57.415 2.85156 56.9229 1.88542 56.2666 1.00586H57.374C58.0439 1.80339 58.5544 2.73079 58.9053 3.78809C59.2562 4.84082 59.4316 5.96647 59.4316 7.16504ZM71.3535 8.70312H69.8701V11H68.7832V8.70312H63.9229V7.71191L68.667 0.951172H69.8701V7.6709H71.3535V8.70312ZM68.7832 7.6709V4.34863C68.7832 3.69694 68.806 2.96094 68.8516 2.14062H68.7969C68.5781 2.57812 68.373 2.94043 68.1816 3.22754L65.0576 7.6709H68.7832ZM75.4482 4.89551C76.501 4.89551 77.3281 5.15755 77.9297 5.68164C78.5358 6.20117 78.8389 6.91439 78.8389 7.82129C78.8389 8.85579 78.5085 9.66699 77.8477 10.2549C77.1914 10.8428 76.2845 11.1367 75.127 11.1367C74.0013 11.1367 73.1423 10.9567 72.5498 10.5967V9.50293C72.8688 9.70801 73.2653 9.86979 73.7393 9.98828C74.2132 10.1022 74.6803 10.1592 75.1406 10.1592C75.9427 10.1592 76.5648 9.97005 77.0068 9.5918C77.4535 9.21354 77.6768 8.66667 77.6768 7.95117C77.6768 6.55664 76.8223 5.85938 75.1133 5.85938C74.6803 5.85938 74.1016 5.92546 73.377 6.05762L72.7891 5.68164L73.165 1.00586H78.1348V2.05176H74.1357L73.8828 5.05273C74.4069 4.94792 74.9287 4.89551 75.4482 4.89551ZM84.54 11H83.4326V3.87695C83.4326 3.28451 83.4508 2.72396 83.4873 2.19531C83.3916 2.29102 83.2845 2.39128 83.166 2.49609C83.0475 2.60091 82.5052 3.04525 81.5391 3.8291L80.9375 3.0498L83.583 1.00586H84.54V11ZM95.293 0.862305C96.2044 0.862305 96.9268 1.07422 97.46 1.49805C97.9932 1.92188 98.2598 2.50749 98.2598 3.25488C98.2598 3.74707 98.1071 4.19596 97.8018 4.60156C97.4964 5.00716 97.0088 5.3763 96.3389 5.70898C97.1501 6.09635 97.7266 6.50423 98.0684 6.93262C98.4102 7.35645 98.5811 7.84863 98.5811 8.40918C98.5811 9.23861 98.2917 9.90169 97.7129 10.3984C97.1341 10.8906 96.3411 11.1367 95.334 11.1367C94.2676 11.1367 93.4473 10.9043 92.873 10.4395C92.2988 9.97005 92.0117 9.30697 92.0117 8.4502C92.0117 7.30632 92.709 6.41536 94.1035 5.77734C93.4746 5.42188 93.0234 5.03906 92.75 4.62891C92.4766 4.21419 92.3398 3.75163 92.3398 3.24121C92.3398 2.5166 92.6064 1.9401 93.1396 1.51172C93.6774 1.07878 94.3952 0.862305 95.293 0.862305ZM93.1328 8.47754C93.1328 9.02441 93.3219 9.45052 93.7002 9.75586C94.083 10.0612 94.6185 10.2139 95.3066 10.2139C95.9857 10.2139 96.5143 10.0544 96.8926 9.73535C97.2708 9.41634 97.46 8.97884 97.46 8.42285C97.46 7.98079 97.2822 7.58887 96.9268 7.24707C96.5713 6.90072 95.9515 6.56576 95.0674 6.24219C94.3883 6.53385 93.8962 6.85742 93.5908 7.21289C93.2855 7.5638 93.1328 7.98535 93.1328 8.47754ZM95.2793 1.78516C94.7096 1.78516 94.263 1.92188 93.9395 2.19531C93.6159 2.46875 93.4541 2.83333 93.4541 3.28906C93.4541 3.70833 93.5885 4.06836 93.8574 4.36914C94.1263 4.66992 94.623 4.9707 95.3477 5.27148C95.9993 4.99805 96.4596 4.7041 96.7285 4.38965C97.002 4.0752 97.1387 3.70833 97.1387 3.28906C97.1387 2.82878 96.9723 2.46419 96.6396 2.19531C96.3115 1.92188 95.8581 1.78516 95.2793 1.78516ZM107.037 8.70312H105.554V11H104.467V8.70312H99.6064V7.71191L104.351 0.951172H105.554V7.6709H107.037V8.70312ZM104.467 7.6709V4.34863C104.467 3.69694 104.49 2.96094 104.535 2.14062H104.48C104.262 2.57812 104.057 2.94043 103.865 3.22754L100.741 7.6709H104.467ZM115.849 11H114.741V3.87695C114.741 3.28451 114.759 2.72396 114.796 2.19531C114.7 2.29102 114.593 2.39128 114.475 2.49609C114.356 2.60091 113.814 3.04525 112.848 3.8291L112.246 3.0498L114.892 1.00586H115.849V11ZM126.226 11H119.656V10.0225L122.288 7.37695C123.09 6.56576 123.619 5.98698 123.874 5.64062C124.129 5.29427 124.321 4.95703 124.448 4.62891C124.576 4.30078 124.64 3.94759 124.64 3.56934C124.64 3.03613 124.478 2.61458 124.154 2.30469C123.831 1.99023 123.382 1.83301 122.808 1.83301C122.393 1.83301 121.999 1.90137 121.625 2.03809C121.256 2.1748 120.843 2.42318 120.388 2.7832L119.786 2.01074C120.707 1.24512 121.709 0.862305 122.794 0.862305C123.733 0.862305 124.469 1.10384 125.002 1.58691C125.535 2.06543 125.802 2.71029 125.802 3.52148C125.802 4.15495 125.624 4.78158 125.269 5.40137C124.913 6.02116 124.248 6.80501 123.272 7.75293L121.085 9.89258V9.94727H126.226V11Z" fill="#454141"/>
</svg>
