<svg width="50" height="50" viewBox="0 0 50 50" fill="none" xmlns="http://www.w3.org/2000/svg">
<path fill-rule="evenodd" clip-rule="evenodd" d="M18.4998 20C19.0794 19.6136 19.5 18.1966 19.5 17.5L19.4998 10C19.4998 6.54823 17.4518 5.00001 14 5.00001H5.99982C4.84923 5.00001 4.5 6.34942 4.5 7.50001C4.5 28.2107 22.7893 45.5 43.5 45.5C44.6506 45.5 45.5 43.6506 45.5 42.5V35.5C45.5 32.0482 41.9518 29.5 38.5 29.5L33.5 29.1667C32.8034 29.1667 30.3864 29.4204 30 30L25.4998 37.5C21.1765 34.7045 16.9134 30.2505 13.9998 26L12.9998 24.5L18.4998 20ZM32.3649 33.3333H39.5833C40.7339 33.3333 41.6666 34.2661 41.6666 35.4167V41.5944C37.6307 41.3152 33.6919 40.2358 30.0182 38.5241L29.1752 38.118L32.3649 33.3333ZM29.1666 12.5C33.7689 12.5 37.4999 16.231 37.4999 20.8333C37.4999 21.9839 36.5672 22.9167 35.4166 22.9167C34.3482 22.9167 34.1203 22.5361 34 21.5L34.5 20C34.3409 17.844 32.1966 15.5 30 15.5C28.8494 15.5 27.0832 15.7339 27.0832 14.5833C27.0832 13.4327 28.016 12.5 29.1666 12.5ZM29.1666 4.16667C38.3713 4.16667 45.8332 11.6286 45.8332 20.8333C45.8332 21.9839 44.9005 22.9167 43.7499 22.9167C42.5993 22.9167 42 20.6506 42 19.5C42 12.5964 36.9035 8.00001 30 8.00001C28.8494 8.00001 27.0832 7.4006 27.0832 6.25001C27.0832 5.09941 28.016 4.16667 29.1666 4.16667ZM14.5832 8.33335C15.7338 8.33335 16.6666 9.26609 16.6666 10.4167V17.635L11.8819 20.8248C9.93495 16.9134 8.70622 12.6797 8.40546 8.33335H14.5832Z" fill="#832CDA"/>
</svg>
