<svg width="121" height="114" viewBox="0 0 121 114" fill="none" xmlns="http://www.w3.org/2000/svg">
<ellipse cx="60.5" cy="57" rx="60.5" ry="57" fill="#AF9EDF"/>
<path d="M96.8113 43.5232L61.4325 28.2385H59.565L24.1863 43.5232V79.9538H29.3738V51.2231L41.3569 56.3946C38.7099 60.5701 37.2798 65.543 37.2588 70.6451C37.2075 71.2759 37.2075 71.9105 37.2588 72.5413V73.1734L38.7113 75.4719L59.3575 85.7H61.4844L81.9232 75.2995L83.3757 73.001V72.3115C83.3757 71.7368 83.3757 71.1048 83.3757 70.4727C83.3463 65.3986 81.9362 60.4522 79.3294 56.2797L96.8113 48.7522V43.5232ZM78.5513 70.4152V70.8175L60.4988 79.9538L42.3425 70.76C42.3183 70.6467 42.3183 70.5286 42.3425 70.4152C42.3708 65.9865 43.7409 61.6965 46.2332 58.2334L59.6169 63.9795H61.4844L74.7644 58.2334C77.2339 61.7029 78.5688 65.9971 78.5513 70.4152V70.4152ZM60.4988 58.4058L32.0713 46.1665L60.4988 33.9846L88.9263 46.2814L60.4988 58.4058Z" fill="#333333"/>
</svg>
