<svg width="121" height="114" viewBox="0 0 121 114" fill="none" xmlns="http://www.w3.org/2000/svg">
<ellipse cx="60.5" cy="57" rx="60.5" ry="57" fill="#AF9EDF"/>
<path fill-rule="evenodd" clip-rule="evenodd" d="M77.128 26.2422C80.6732 23.2522 86.4209 23.2522 89.9661 26.2422L95.5986 30.9925C99.1438 33.9824 99.1438 38.8301 95.5986 41.8201L50.9361 79.4873C49.8452 80.4074 48.4942 81.0776 47.0108 81.4351L30.1471 85.4986C28.7885 85.8262 27.3263 85.5064 26.3272 84.6638C25.328 83.8212 24.9491 82.5883 25.3373 81.4425L30.1555 67.2198C30.5793 65.969 31.3742 64.8293 32.4652 63.9092L77.128 26.2422ZM84.4642 30.8826C83.9574 30.4554 83.1362 30.4554 82.6299 30.8826L76.0802 36.4062L83.547 42.7034L90.0968 37.1797C90.6031 36.7525 90.6031 36.06 90.0968 35.6329L84.4642 30.8826ZM78.0447 47.3437L70.5782 41.0466L37.9673 68.5498C37.8115 68.6811 37.6979 68.8438 37.6374 69.0227L34.743 77.5662L44.8731 75.125C45.085 75.0742 45.278 74.9784 45.4339 74.8467L78.0447 47.3437Z" fill="#24292E"/>
</svg>
