<svg width="121" height="114" viewBox="0 0 121 114" fill="none" xmlns="http://www.w3.org/2000/svg">
<ellipse cx="60.5" cy="57" rx="60.5" ry="57" fill="#AF9EDF"/>
<path fill-rule="evenodd" clip-rule="evenodd" d="M30.9375 58.5C30.9375 51.2811 34.1048 44.3579 39.7426 39.2535C45.3804 34.1489 53.0269 31.2812 61 31.2812C68.9731 31.2812 76.6195 34.1489 82.2574 39.2535C87.8953 44.3579 91.0625 51.2811 91.0625 58.5C91.0625 65.7189 87.8953 72.642 82.2574 77.7466C76.6195 82.8512 68.9731 85.7188 61 85.7188C53.0269 85.7188 45.3804 82.8512 39.7426 77.7466C34.1048 72.642 30.9375 65.7189 30.9375 58.5ZM61 25C51.187 25 41.7759 28.5295 34.8371 34.8119C27.8982 41.0944 24 49.6153 24 58.5C24 67.3846 27.8982 75.9058 34.8371 82.1883C41.7759 88.4704 51.187 92 61 92C70.8129 92 80.2243 88.4704 87.1632 82.1883C94.1016 75.9058 98 67.3846 98 58.5C98 49.6153 94.1016 41.0944 87.1632 34.8119C80.2243 28.5295 70.8129 25 61 25ZM47.125 58.5C48.3516 58.5 49.528 58.0588 50.3954 57.2735C51.2627 56.4882 51.75 55.4231 51.75 54.3125C51.75 53.2019 51.2627 52.1368 50.3954 51.3515C49.528 50.5662 48.3516 50.125 47.125 50.125C45.8984 50.125 44.722 50.5662 43.8546 51.3515C42.9873 52.1368 42.5 53.2019 42.5 54.3125C42.5 55.4231 42.9873 56.4882 43.8546 57.2735C44.722 58.0588 45.8984 58.5 47.125 58.5ZM79.5 54.3125C79.5 55.4231 79.0125 56.4882 78.1453 57.2735C77.2781 58.0588 76.1016 58.5 74.875 58.5C73.6484 58.5 72.4719 58.0588 71.6047 57.2735C70.7375 56.4882 70.25 55.4231 70.25 54.3125C70.25 53.2019 70.7375 52.1368 71.6047 51.3515C72.4719 50.5662 73.6484 50.125 74.875 50.125C76.1016 50.125 77.2781 50.5662 78.1453 51.3515C79.0125 52.1368 79.5 53.2019 79.5 54.3125ZM48.605 65.3507C49.3512 64.8777 50.273 64.6894 51.1712 64.8265C52.0695 64.9636 52.8721 65.4152 53.4057 66.0836L53.4381 66.1213C53.9138 66.6152 54.4579 67.0513 55.0569 67.4194C56.2779 68.1647 58.2158 68.9688 61 68.9688C63.7842 68.9688 65.7175 68.1647 66.9431 67.4152C67.5421 67.0471 68.0862 66.611 68.5619 66.1171L68.5942 66.0836C69.1278 65.405 69.9373 64.9461 70.8443 64.8079C71.7517 64.6697 72.6827 64.8635 73.432 65.3466C74.1812 65.8297 74.6882 66.5626 74.8408 67.3838C74.9934 68.2054 74.7797 69.0483 74.246 69.7267L71.4062 67.9219C74.246 69.7225 74.246 69.7267 74.2414 69.7267V69.7309L74.2368 69.7393L74.2275 69.7518L74.2044 69.7811L74.1396 69.8607C73.8797 70.176 73.5953 70.4737 73.2886 70.7526C72.5454 71.4494 71.724 72.0738 70.8374 72.6161C67.9246 74.3681 64.4968 75.286 61 75.25C56.6247 75.25 53.3595 73.9603 51.1672 72.6119C50.0073 71.9013 48.96 71.0504 48.0546 70.0826C47.9885 70.0098 47.9237 69.9356 47.8604 69.8607L47.7956 69.7769L47.7725 69.7518L47.7633 69.7393V69.7309H47.7586L50.5938 67.9219L47.754 69.7225C47.2266 69.0408 47.0195 68.1978 47.1781 67.3779C47.3369 66.5584 47.8483 65.8293 48.6004 65.3507H48.605Z" fill="#24292E"/>
</svg>
